<?xml version="1.0" encoding="utf-8"?>
<!-- Generator: Adobe Illustrator 20.1.0, SVG Export Plug-In . SVG Version: 6.00 Build 0)  -->
<svg version="1.1" id="Layer_1" xmlns:sketch="http://www.bohemiancoding.com/sketch/ns"
	 xmlns="http://www.w3.org/2000/svg" xmlns:xlink="http://www.w3.org/1999/xlink" x="0px" y="0px" viewBox="0 0 34 34"
	 style="enable-background:new 0 0 34 34;" xml:space="preserve">
<style type="text/css">
	.st0{filter:url(#filter-1);}
	.st1{opacity:0.7899;}
	.st2{fill:#111111;}
</style>
<filter  filterUnits="objectBoundingBox" height="200%" id="filter-1" width="200%" x="-50%" y="-50%">
	<feOffset  dx="0" dy="0" in="SourceAlpha" result="shadowOffsetOuter1"></feOffset>
	<feGaussianBlur  in="shadowOffsetOuter1" result="shadowBlurOuter1" stdDeviation="3"></feGaussianBlur>
	
		<feColorMatrix  in="shadowBlurOuter1" result="shadowMatrixOuter1" type="matrix" values="0 0 0 0 0.627577594   0 0 0 0 0.627577594   0 0 0 0 0.627577594  0 0 0 0.326024683 0">
		</feColorMatrix>
	<feMerge>
		<feMergeNode  in="shadowMatrixOuter1"></feMergeNode>
		<feMergeNode  in="SourceGraphic"></feMergeNode>
	</feMerge>
</filter>
<title>instagram</title>
<desc>Created with Sketch.</desc>
<g id="Page-1" sketch:type="MSPage">
	<g id="Group" transform="translate(-77.000000, -27.000000)" sketch:type="MSLayerGroup" class="st0">
		<g>
			<g class="st1">
				<path class="st2" d="M85.3,33C84,33,83,34,83,35.3v17.4c0,1.3,1,2.3,2.3,2.3h17.4c1.3,0,2.3-1,2.3-2.3V35.3c0-1.3-1-2.3-2.3-2.3
					H85.3L85.3,33z M94,39.7c2.4,0,4.3,1.9,4.3,4.3c0,2.4-1.9,4.3-4.3,4.3c-2.4,0-4.3-1.9-4.3-4.3C89.7,41.6,91.6,39.7,94,39.7
					L94,39.7z M102.5,51.7c0,0.5-0.4,0.8-1,0.8h-15c-0.6,0-1-0.2-1-0.8v-9.4h1.9c-0.1,0.5-0.2,1.1-0.2,1.6c0,3.8,3.1,6.9,6.9,6.9
					s6.9-3.1,6.9-6.9c0-0.6-0.1-1.1-0.2-1.6h1.8C102.5,42.3,102.5,51.1,102.5,51.7L102.5,51.7z M102.5,39c0,0.4-0.4,0.8-0.8,0.8H99
					c-0.4,0-0.8-0.4-0.8-0.8v-2.7c0-0.4,0.4-0.8,0.8-0.8h2.7c0.4,0,0.8,0.4,0.8,0.8V39L102.5,39z"/>
			</g>
		</g>
	</g>
</g>
</svg>
