<?xml version="1.0" encoding="utf-8"?>
<!-- Generator: Adobe Illustrator 20.1.0, SVG Export Plug-In . SVG Version: 6.00 Build 0)  -->
<svg version="1.1" id="Layer_1" xmlns:sketch="http://www.bohemiancoding.com/sketch/ns"
	 xmlns="http://www.w3.org/2000/svg" xmlns:xlink="http://www.w3.org/1999/xlink" x="0px" y="0px" viewBox="0 0 39 39"
	 style="enable-background:new 0 0 39 39;" xml:space="preserve">
<style type="text/css">
	.st0{fill-opacity:0.7899;}
</style>
<title>facebook</title>
<desc>Created with Sketch.</desc>
<path id="facebook" sketch:type="MSShapeGroup" class="st0" d="M31.5,6h-24C6.7,6,6,6.7,6,7.5v24C6,32.3,6.7,33,7.5,33h12.9V22.5
	h-3.5v-4.1h3.5v-3c0-3.5,2.1-5.4,5.2-5.4c1.5,0,2.8,0.1,3.1,0.2v3.6l-2.2,0c-1.7,0-2,0.8-2,2v2.6h4l-0.5,4.1h-3.5V33h6.9
	c0.8,0,1.5-0.7,1.5-1.5v-24C33,6.7,32.3,6,31.5,6L31.5,6z"/>
</svg>
