<?xml version="1.0" encoding="utf-8"?>
<!-- Generator: Adobe Illustrator 20.1.0, SVG Export Plug-In . SVG Version: 6.00 Build 0)  -->
<svg version="1.1" id="Layer_1" xmlns:sketch="http://www.bohemiancoding.com/sketch/ns"
	 xmlns="http://www.w3.org/2000/svg" xmlns:xlink="http://www.w3.org/1999/xlink" x="0px" y="0px" viewBox="0 0 34 34"
	 style="enable-background:new 0 0 34 34;" xml:space="preserve">
<style type="text/css">
	.st0{fill-opacity:0.7899;}
</style>
<title>instagram</title>
<desc>Created with Sketch.</desc>
<path id="instagram" sketch:type="MSShapeGroup" class="st0" d="M8.3,6C7,6,6,7,6,8.3v17.4C6,27,7,28,8.3,28h17.4
	c1.3,0,2.3-1,2.3-2.3V8.3C28,7,27,6,25.7,6H8.3L8.3,6z M17,12.7c2.4,0,4.3,1.9,4.3,4.3c0,2.4-1.9,4.3-4.3,4.3
	c-2.4,0-4.3-1.9-4.3-4.3C12.7,14.6,14.6,12.7,17,12.7L17,12.7z M25.5,24.7c0,0.5-0.4,0.8-1,0.8h-15c-0.6,0-1-0.2-1-0.8v-9.4h1.9
	c-0.1,0.5-0.2,1.1-0.2,1.6c0,3.8,3.1,6.9,6.9,6.9s6.9-3.1,6.9-6.9c0-0.6-0.1-1.1-0.2-1.6h1.8C25.5,15.3,25.5,24.1,25.5,24.7
	L25.5,24.7z M25.5,12c0,0.4-0.4,0.8-0.8,0.8H22c-0.4,0-0.8-0.4-0.8-0.8V9.2c0-0.4,0.4-0.8,0.8-0.8h2.7c0.4,0,0.8,0.4,0.8,0.8V12
	L25.5,12z"/>
</svg>
