<?xml version="1.0" encoding="utf-8"?>
<!-- Generator: Adobe Illustrator 20.1.0, SVG Export Plug-In . SVG Version: 6.00 Build 0)  -->
<svg version="1.1" id="Layer_1" xmlns:sketch="http://www.bohemiancoding.com/sketch/ns"
	 xmlns="http://www.w3.org/2000/svg" xmlns:xlink="http://www.w3.org/1999/xlink" x="0px" y="0px" viewBox="0 0 37 34"
	 style="enable-background:new 0 0 37 34;" xml:space="preserve">
<style type="text/css">
	.st0{filter:url(#filter-1);}
	.st1{opacity:0.7899;fill:#111111;}
</style>
<filter  filterUnits="objectBoundingBox" height="200%" id="filter-1" width="200%" x="-50%" y="-50%">
	<feOffset  dx="0" dy="0" in="SourceAlpha" result="shadowOffsetOuter1"></feOffset>
	<feGaussianBlur  in="shadowOffsetOuter1" result="shadowBlurOuter1" stdDeviation="3"></feGaussianBlur>
	
		<feColorMatrix  in="shadowBlurOuter1" result="shadowMatrixOuter1" type="matrix" values="0 0 0 0 0.627577594   0 0 0 0 0.627577594   0 0 0 0 0.627577594  0 0 0 0.326024683 0">
		</feColorMatrix>
	<feMerge>
		<feMergeNode  in="shadowMatrixOuter1"></feMergeNode>
		<feMergeNode  in="SourceGraphic"></feMergeNode>
	</feMerge>
</filter>
<title>github</title>
<desc>Created with Sketch.</desc>
<g id="Page-1" sketch:type="MSPage">
	<g id="Group" transform="translate(-128.000000, -27.000000)" sketch:type="MSLayerGroup" class="st0">
		<g>
			<path class="st1" d="M161.9,43.7c0,0,0.1,0,0.1-0.1c0-0.1,0-0.1-0.1-0.1c-1.4-0.3-3.3-0.5-6.7-0.5c0.2-0.8,0.3-1.7,0.3-2.8
				c0-3-1.4-4-1.7-4.5c0.4-2.2-0.1-3.3-0.3-3.6c-0.8-0.3-2.8,0.7-3.9,1.5c-1.8-0.5-5.5-0.5-6.9,0.1c-2.6-1.9-4-1.6-4-1.6
				s-0.9,1.6-0.2,3.9c-1.6,2.1-1.9,4.5-1,7c-1.4,0-5.2,0.2-6.5,0.5c-0.1,0-0.1,0.1-0.1,0.1c0,0.1,0.1,0.1,0.1,0.1
				c1.3-0.3,5.3-0.5,6.5-0.5c0.1,0.2,0.2,0.4,0.2,0.6c-3.3,0.1-5.1,0.6-6.5,0.9c-0.1,0-0.2,0-0.3,0.1c-0.1,0-0.1,0.1-0.1,0.1
				c0,0.1,0.1,0.1,0.1,0.1c0.1,0,0.2,0,0.3-0.1c1.4-0.3,3.3-0.8,6.6-0.9c1,1.8,2.8,2.9,5.9,3.2c0,0,0.1,0,0.1,0
				c-0.4,0.3-1,1-1.1,1.8c-0.6,0.4-1.7,0.5-2.6,0.2c-1.2-0.4-1.7-2.9-3.6-2.5c-0.4,0.1-0.3,0.3,0,0.6c0.6,0.4,1.1,0.8,1.5,1.8
				c0.8,1.9,2.6,2.3,4.5,2c0,0.9,0.3,2.3-0.1,3.1c-0.2,0.3-1.1,0.7-1,1.1c0,0.5,1.2,0.2,1.4,0.1c1.4-0.5,1.1-1.8,1.1-3
				c0-0.8-0.3-2.4,0.5-3c0,0,0.1,4.9-0.1,5.6c-0.1,0.4-0.9,1-0.3,1.2c0.6,0.2,1.5-0.8,1.8-1.2c0.4-0.9,0.2-5.7,0.2-5.7l0.4,0
				c0,0,0,2.2,0,3.2c0,1-0.1,2.4,0.5,3c0.2,0.2,1.4,1.1,1.7,0.6c0.1-0.2-0.1-0.4-0.2-0.6c-0.2-0.4-0.5-0.7-0.5-1.2v-4.7
				c0.6,0,0.5,1.6,0.5,1.6l0,2.9c0,0-0.1,1.1,1.1,1.5c0.4,0.2,1.4,0.2,1.4-0.1c0-0.3-1.1-0.7-1.2-1.5c0-2,0.7-5.3-1.3-6.6
				c0.3,0,0.7-0.1,1-0.1v0c2.5-0.4,4.2-1.2,5-3c1.1,0,4.3,0.1,6.9,1c0.1,0,0.1,0,0.1-0.1c0-0.1,0-0.1-0.1-0.1
				c-2.6-0.8-5.8-0.9-6.9-1c0.1-0.2,0.1-0.4,0.2-0.6C158.5,43.2,160.5,43.4,161.9,43.7L161.9,43.7z"/>
		</g>
	</g>
</g>
</svg>
