<?xml version="1.0" encoding="utf-8"?>
<!-- Generator: Adobe Illustrator 20.1.0, SVG Export Plug-In . SVG Version: 6.00 Build 0)  -->
<svg version="1.1" id="Layer_1" xmlns:sketch="http://www.bohemiancoding.com/sketch/ns"
	 xmlns="http://www.w3.org/2000/svg" xmlns:xlink="http://www.w3.org/1999/xlink" x="0px" y="0px" viewBox="0 0 37 34"
	 style="enable-background:new 0 0 37 34;" xml:space="preserve">
<style type="text/css">
	.st0{fill-opacity:0.7899;}
</style>
<title>github</title>
<desc>Created with Sketch.</desc>
<path id="github" sketch:type="MSShapeGroup" class="st0" d="M33.9,16.7C33.9,16.7,33.9,16.7,33.9,16.7c0.1,0,0.1,0,0.1-0.1
	c0-0.1,0-0.1-0.1-0.1c-1.4-0.3-3.3-0.5-6.7-0.5c0.2-0.8,0.3-1.7,0.3-2.8c0-3-1.4-4-1.7-4.5c0.4-2.2-0.1-3.3-0.3-3.6
	c-0.8-0.3-2.8,0.7-3.9,1.5C19.9,6,16.2,6,14.8,6.6c-2.6-1.9-4-1.6-4-1.6S10,6.7,10.6,9c-0.9,1.1-1.5,1.9-1.5,3.9
	c0,1.2,0.1,2.2,0.4,3.1c-1.4,0-5.2,0.2-6.5,0.5C3,16.5,3,16.6,3,16.6c0,0,0.1,0.1,0.1,0.1c0,0,0,0,0,0c1.3-0.3,5.3-0.5,6.5-0.5
	c0.1,0.2,0.2,0.4,0.2,0.6c-3.3,0.1-5.1,0.6-6.5,0.9c-0.1,0-0.2,0-0.3,0.1c-0.1,0-0.1,0.1-0.1,0.1c0,0,0,0.1,0.1,0.1c0,0,0,0,0,0
	c0.1,0,0.2,0,0.3-0.1C4.8,17.5,6.7,17,10,17c1,1.8,2.8,2.9,5.9,3.2c0,0,0.1,0,0.1,0c-0.4,0.3-1,1-1.1,1.8c-0.6,0.4-1.7,0.5-2.6,0.2
	c-1.2-0.4-1.7-2.9-3.6-2.5c-0.4,0.1-0.3,0.3,0,0.6c0.6,0.4,1.1,0.8,1.5,1.8c0.3,0.8,1,2.1,3.1,2.1c0.8,0,1.4-0.1,1.4-0.1
	s0,1.9,0,2.7c0,0.9-1.2,1.1-1.2,1.5c0,0.2,0.4,0.2,0.7,0.2c0.6,0,1.9-0.5,1.9-1.4c0-0.7,0-3.1,0-3.5c0-0.9,0.5-1.2,0.5-1.2
	s0.1,4.9-0.1,5.6c-0.2,0.8-0.6,0.7-0.6,1c0,0.5,1.5,0.1,2-1c0.4-0.9,0.2-5.7,0.2-5.7l0.4,0c0,0,0,2.2,0,3.2c0,1-0.1,2.4,0.5,3
	c0.4,0.4,1.7,1.1,1.7,0.5c0-0.4-0.7-0.7-0.7-1.7v-4.7c0.6,0,0.5,1.6,0.5,1.6l0,2.9c0,0-0.1,1.1,1.1,1.5c0.4,0.2,1.4,0.2,1.4-0.1
	c0-0.3-1.1-0.7-1.2-1.5c0-0.5,0-0.8,0-3c0-2.2-0.3-3-1.3-3.6c0.3,0,0.7-0.1,1-0.1v0c2.5-0.4,4.2-1.2,5-3c1.1,0,4.3,0.1,6.9,1
	c0,0,0,0,0,0c0,0,0.1,0,0.1-0.1c0-0.1,0-0.1-0.1-0.1c-2.6-0.8-5.8-0.9-6.9-1c0.1-0.2,0.1-0.4,0.2-0.6C30.5,16.2,32.5,16.4,33.9,16.7
	L33.9,16.7z"/>
</svg>
