<?xml version="1.0" encoding="utf-8"?>
<!-- Generator: Adobe Illustrator 20.1.0, SVG Export Plug-In . SVG Version: 6.00 Build 0)  -->
<svg version="1.1" id="Layer_1" xmlns:sketch="http://www.bohemiancoding.com/sketch/ns"
	 xmlns="http://www.w3.org/2000/svg" xmlns:xlink="http://www.w3.org/1999/xlink" x="0px" y="0px" viewBox="0 0 35 33"
	 style="enable-background:new 0 0 35 33;" xml:space="preserve">
<style type="text/css">
	.st0{fill-opacity:0.7899;}
</style>
<title>twitter</title>
<desc>Created with Sketch.</desc>
<path id="twitter" sketch:type="MSShapeGroup" class="st0" d="M31,7.6c-1,0.4-2.1,0.7-3.2,0.9c1.1-0.7,2-1.8,2.4-3.1
	C29.2,6,28,6.5,26.7,6.8c-1-1.1-2.4-1.8-4-1.8c-3.1,0-5.5,2.5-5.5,5.6c0,0.4,0,0.9,0.1,1.3C12.7,11.6,8.6,9.4,5.9,6
	C5.4,6.8,5.1,7.8,5.1,8.8c0,1.9,1,3.6,2.5,4.6c-0.9,0-1.8-0.3-2.5-0.7v0.1c0,2.7,1.9,4.9,4.4,5.4c-0.5,0.1-1,0.2-1.5,0.2
	c-0.4,0-0.7,0-1-0.1c0.7,2.2,2.8,3.8,5.2,3.9c-1.9,1.5-4.3,2.4-6.9,2.4c-0.4,0-0.9,0-1.3-0.1c2.5,1.6,5.4,2.5,8.5,2.5
	c10.2,0,15.8-8.5,15.8-15.8c0-0.2,0-0.5,0-0.7C29.3,9.7,30.3,8.7,31,7.6L31,7.6z"/>
</svg>
